{
    "asset" : {
        "generator" : "Khronos glTF Blender I/O v1.6.16",
        "version" : "2.0"
    },
    "scene" : 0,
    "scenes" : [
        {
            "name" : "Scene",
            "nodes" : [
                0,
                1,
                2
            ]
        }
    ],
    "nodes" : [
        {
            "name" : "Light",
            "rotation" : [
                0.16907575726509094,
                0.7558803558349609,
                -0.27217137813568115,
                0.570947527885437
            ],
            "translation" : [
                4.076245307922363,
                5.903861999511719,
                -1.0054539442062378
            ]
        },
        {
            "name" : "Camera",
            "rotation" : [
                0.483536034822464,
                0.33687159419059753,
                -0.20870360732078552,
                0.7804827094078064
            ],
            "translation" : [
                7.358891487121582,
                4.958309173583984,
                6.925790786743164
            ]
        },
        {
            "mesh" : 0,
            "name" : "Landscape.002",
            "scale" : [
                1.2799997329711914,
                1.0699999332427979,
                1.2799997329711914
            ]
        }
    ],
    "meshes" : [
        {
            "name" : "Landscape.002",
            "primitives" : [
                {
                    "attributes" : {
                        "POSITION" : 0,
                        "NORMAL" : 1
                    },
                    "indices" : 2
                }
            ]
        }
    ],
    "accessors" : [
        {
            "bufferView" : 0,
            "componentType" : 5126,
            "count" : 16384,
            "max" : [
                1,
                0.41771936416625977,
                1
            ],
            "min" : [
                -1,
                2.0614590034995217e-09,
                -1
            ],
            "type" : "VEC3"
        },
        {
            "bufferView" : 1,
            "componentType" : 5126,
            "count" : 16384,
            "type" : "VEC3"
        },
        {
            "bufferView" : 2,
            "componentType" : 5123,
            "count" : 96774,
            "type" : "SCALAR"
        }
    ],
    "bufferViews" : [
        {
            "buffer" : 0,
            "byteLength" : 196608,
            "byteOffset" : 0
        },
        {
            "buffer" : 0,
            "byteLength" : 196608,
            "byteOffset" : 196608
        },
        {
            "buffer" : 0,
            "byteLength" : 193548,
            "byteOffset" : 393216
        }
    ],
    "buffers" : [
        {
            "byteLength" : 586764,
            "uri" : "data:application/octet-stream;base64,"
        }
    ]
}
